<?xml version="1.0" encoding="UTF-8" standalone="no"?>
<!DOCTYPE svg PUBLIC "-//W3C//DTD SVG 1.1//EN" "http://www.w3.org/Graphics/SVG/1.1/DTD/svg11.dtd">
<!-- Generated by graphviz version 2.40.1 (20161225.0304)
 -->
<!-- Title: G Pages: 1 -->
<svg width="241pt" height="172pt" viewBox="0.00 0.00 248.27 177.00" xmlns="http://www.w3.org/2000/svg" xmlns:xlink="http://www.w3.org/1999/xlink">
<g id="graph0" class="graph" transform="scale(.9722 .9722) rotate(0) translate(4 173)">
<title>G</title>
<polygon fill="#ffffff" stroke="transparent" points="-4,4 -4,-173 244.267,-173 244.267,4 -4,4"/>
<!-- q_o -->
<g id="node1" class="node">
<title>q_o</title>
<ellipse fill="#000000" stroke="#000000" cx="1.8" cy="-67" rx="1.8" ry="1.8"/>
</g>
<!-- S0 -->
<g id="node4" class="node">
<title>S0</title>
<ellipse fill="none" stroke="#000000" cx="58.6" cy="-67" rx="18" ry="18"/>
<text text-anchor="middle" x="58.6" y="-64.6" font-family="Arial" font-size="8.00" fill="#0000ff">S0</text>
</g>
<!-- q_o&#45;&gt;S0 -->
<g id="edge1" class="edge">
<title>q_o-&gt;S0</title>
<path fill="none" stroke="#000000" d="M3.6898,-67C8.0522,-67 19.3107,-67 30.5058,-67"/>
<polygon fill="#000000" stroke="#000000" points="30.5696,-70.5001 40.5696,-67 30.5696,-63.5001 30.5696,-70.5001"/>
</g>
<!-- S1 -->
<g id="node2" class="node">
<title>S1</title>
<ellipse fill="none" stroke="#000000" cx="140.708" cy="-114" rx="18" ry="18"/>
<ellipse fill="none" stroke="#000000" cx="140.708" cy="-114" rx="22" ry="22"/>
<text text-anchor="middle" x="140.708" y="-111.6" font-family="Arial" font-size="8.00" fill="#0000ff">S1</text>
</g>
<!-- S1&#45;&gt;S1 -->
<g id="edge4" class="edge">
<title>S1-&gt;S1</title>
<path fill="none" stroke="#000000" d="M133.0253,-134.9908C132.0768,-145.0872 134.6377,-154 140.708,-154 144.5968,-154 147.0453,-150.3422 148.0536,-145.0587"/>
<polygon fill="#000000" stroke="#000000" points="151.554,-145.1023 148.3907,-134.9908 144.5579,-144.868 151.554,-145.1023"/>
<text text-anchor="start" x="137.654" y="-157" font-family="Arial" font-size="10.00" fill="#ff0000">ε</text>
</g>
<!-- S2 -->
<g id="node5" class="node">
<title>S2</title>
<ellipse fill="none" stroke="#000000" cx="222.267" cy="-121" rx="18" ry="18"/>
<text text-anchor="middle" x="222.267" y="-118.6" font-family="Arial" font-size="8.00" fill="#0000ff">S2</text>
</g>
<!-- S1&#45;&gt;S2 -->
<g id="edge5" class="edge">
<title>S1-&gt;S2</title>
<path fill="none" stroke="#000000" d="M162.9944,-115.9128C172.5857,-116.736 183.9086,-117.7078 194.0744,-118.5803"/>
<polygon fill="#000000" stroke="#000000" points="193.8657,-122.0752 204.1284,-119.4432 194.4644,-115.1008 193.8657,-122.0752"/>
<text text-anchor="middle" x="183.4875" y="-120" font-family="Arial" font-size="10.00" fill="#ff0000">0</text>
</g>
<!-- S3 -->
<g id="node3" class="node">
<title>S3</title>
<ellipse fill="none" stroke="#000000" cx="140.708" cy="-22" rx="18" ry="18"/>
<ellipse fill="none" stroke="#000000" cx="140.708" cy="-22" rx="22" ry="22"/>
<text text-anchor="middle" x="140.708" y="-19.6" font-family="Arial" font-size="8.00" fill="#0000ff">S3</text>
</g>
<!-- S3&#45;&gt;S3 -->
<g id="edge9" class="edge">
<title>S3-&gt;S3</title>
<path fill="none" stroke="#000000" d="M133.0253,-42.9908C132.0768,-53.0872 134.6377,-62 140.708,-62 144.5968,-62 147.0453,-58.3422 148.0536,-53.0587"/>
<polygon fill="#000000" stroke="#000000" points="151.554,-53.1023 148.3907,-42.9908 144.5579,-52.868 151.554,-53.1023"/>
<text text-anchor="middle" x="140.708" y="-65" font-family="Arial" font-size="10.00" fill="#ff0000">0</text>
</g>
<!-- S4 -->
<g id="node6" class="node">
<title>S4</title>
<ellipse fill="none" stroke="#000000" cx="222.267" cy="-30" rx="18" ry="18"/>
<text text-anchor="middle" x="222.267" y="-27.6" font-family="Arial" font-size="8.00" fill="#0000ff">S4</text>
</g>
<!-- S3&#45;&gt;S4 -->
<g id="edge8" class="edge">
<title>S3-&gt;S4</title>
<path fill="none" stroke="#000000" d="M162.6335,-26.4437C168.4824,-27.4626 174.8148,-28.4167 180.708,-29 184.9903,-29.4238 189.5323,-29.7045 193.9807,-29.8857"/>
<polygon fill="#000000" stroke="#000000" points="193.9361,-33.3856 204.0242,-30.1484 194.1192,-26.388 193.9361,-33.3856"/>
<text text-anchor="middle" x="183.4875" y="-32" font-family="Arial" font-size="10.00" fill="#ff0000">1</text>
</g>
<!-- S0&#45;&gt;S1 -->
<g id="edge2" class="edge">
<title>S0-&gt;S1</title>
<path fill="none" stroke="#000000" d="M74.4312,-76.0621C85.231,-82.244 99.8328,-90.6023 112.5821,-97.9003"/>
<polygon fill="#000000" stroke="#000000" points="111.0398,-101.0502 121.4573,-102.9806 114.5173,-94.9751 111.0398,-101.0502"/>
<text text-anchor="start" x="94.6" y="-93" font-family="Arial" font-size="10.00" fill="#ff0000">ε</text>
</g>
<!-- S0&#45;&gt;S3 -->
<g id="edge3" class="edge">
<title>S0-&gt;S3</title>
<path fill="none" stroke="#000000" d="M74.4312,-58.3235C85.156,-52.4458 99.6302,-44.5131 112.3162,-37.5604"/>
<polygon fill="#000000" stroke="#000000" points="114.0712,-40.5897 121.1584,-32.7143 110.7069,-34.4512 114.0712,-40.5897"/>
<text text-anchor="start" x="94.6" y="-50" font-family="Arial" font-size="10.00" fill="#ff0000">ε</text>
</g>
<!-- S2&#45;&gt;S1 -->
<g id="edge6" class="edge">
<title>S2-&gt;S1</title>
<path fill="none" stroke="#000000" d="M207.2284,-110.4053C201.0365,-106.6568 193.6034,-102.9011 186.267,-101 181.1239,-99.6673 175.6756,-99.8347 170.4037,-100.8302"/>
<polygon fill="#000000" stroke="#000000" points="169.2865,-97.5086 160.6096,-103.5882 171.1839,-104.2466 169.2865,-97.5086"/>
<text text-anchor="middle" x="183.4875" y="-104" font-family="Arial" font-size="10.00" fill="#ff0000">0</text>
</g>
<!-- S2&#45;&gt;S2 -->
<g id="edge7" class="edge">
<title>S2-&gt;S2</title>
<path fill="none" stroke="#000000" d="M215.5334,-138.0373C214.1592,-147.8579 216.4037,-157 222.267,-157 225.9316,-157 228.1825,-153.4289 229.0199,-148.3529"/>
<polygon fill="#000000" stroke="#000000" points="232.5194,-148.0307 229.0006,-138.0373 225.5194,-148.0439 232.5194,-148.0307"/>
<text text-anchor="middle" x="222.267" y="-160" font-family="Arial" font-size="10.00" fill="#ff0000">1</text>
</g>
<!-- S4&#45;&gt;S3 -->
<g id="edge10" class="edge">
<title>S4-&gt;S3</title>
<path fill="none" stroke="#000000" d="M206.2667,-21.1683C200.1926,-18.2824 193.0913,-15.4482 186.267,-14 181.6346,-13.0169 176.719,-12.9113 171.8965,-13.3309"/>
<polygon fill="#000000" stroke="#000000" points="170.9652,-9.9345 161.6338,-14.952 172.0574,-16.8488 170.9652,-9.9345"/>
<text text-anchor="middle" x="183.4875" y="-17" font-family="Arial" font-size="10.00" fill="#ff0000">1</text>
</g>
<!-- S4&#45;&gt;S4 -->
<g id="edge11" class="edge">
<title>S4-&gt;S4</title>
<path fill="none" stroke="#000000" d="M215.5334,-47.0373C214.1592,-56.8579 216.4037,-66 222.267,-66 225.9316,-66 228.1825,-62.4289 229.0199,-57.3529"/>
<polygon fill="#000000" stroke="#000000" points="232.5194,-57.0307 229.0006,-47.0373 225.5194,-57.0439 232.5194,-57.0307"/>
<text text-anchor="middle" x="222.267" y="-69" font-family="Arial" font-size="10.00" fill="#ff0000">0</text>
</g>
</g>
</svg>